<mxfile host="app.diagrams.net" agent="Mozilla/5.0 (Windows NT 10.0; Win64; x64; rv:144.0) Gecko/20100101 Firefox/144.0" version="28.2.7">
  <diagram name="Page-1" id="Um_lafbun59XMwA0UoiO">
    <mxGraphModel dx="1426" dy="787" grid="1" gridSize="10" guides="0" tooltips="1" connect="0" arrows="0" fold="1" page="1" pageScale="1" pageWidth="1169" pageHeight="827" background="none" math="0" shadow="1" adaptiveColors="simple">
      <root>
        <mxCell id="0" />
        <mxCell id="1" parent="0" />
        <mxCell id="pCvQwkfnuYNeorSNLzL4-3" style="edgeStyle=orthogonalEdgeStyle;rounded=1;hachureGap=4;orthogonalLoop=1;jettySize=auto;html=1;exitX=0.5;exitY=1;exitDx=0;exitDy=0;fontFamily=Architects Daughter;fontSource=https%3A%2F%2Ffonts.googleapis.com%2Fcss%3Ffamily%3DArchitects%2BDaughter;endArrow=none;endFill=0;labelBackgroundColor=none;fontColor=default;" parent="1" source="pCvQwkfnuYNeorSNLzL4-1" edge="1">
          <mxGeometry relative="1" as="geometry">
            <mxPoint x="190" y="760" as="targetPoint" />
          </mxGeometry>
        </mxCell>
        <mxCell id="pCvQwkfnuYNeorSNLzL4-1" value="&lt;font face=&quot;Verdana&quot; style=&quot;font-size: 18px;&quot;&gt;Client&lt;/font&gt;" style="rounded=1;whiteSpace=wrap;html=1;hachureGap=4;fontFamily=Architects Daughter;fontSource=https%3A%2F%2Ffonts.googleapis.com%2Fcss%3Ffamily%3DArchitects%2BDaughter;labelBackgroundColor=none;" parent="1" vertex="1">
          <mxGeometry x="130" y="60" width="120" height="60" as="geometry" />
        </mxCell>
        <mxCell id="pCvQwkfnuYNeorSNLzL4-2" value="&lt;font face=&quot;Verdana&quot; style=&quot;font-size: 18px;&quot;&gt;Site Web&lt;/font&gt;" style="rounded=1;whiteSpace=wrap;html=1;hachureGap=4;fontFamily=Architects Daughter;fontSource=https%3A%2F%2Ffonts.googleapis.com%2Fcss%3Ffamily%3DArchitects%2BDaughter;labelBackgroundColor=none;" parent="1" vertex="1">
          <mxGeometry x="890" y="60" width="120" height="60" as="geometry" />
        </mxCell>
        <mxCell id="pCvQwkfnuYNeorSNLzL4-6" style="edgeStyle=orthogonalEdgeStyle;rounded=1;hachureGap=4;orthogonalLoop=1;jettySize=auto;html=1;exitX=0.5;exitY=1;exitDx=0;exitDy=0;fontFamily=Architects Daughter;fontSource=https%3A%2F%2Ffonts.googleapis.com%2Fcss%3Ffamily%3DArchitects%2BDaughter;endArrow=none;endFill=0;labelBackgroundColor=none;fontColor=default;" parent="1" edge="1">
          <mxGeometry relative="1" as="geometry">
            <mxPoint x="949.5" y="760" as="targetPoint" />
            <mxPoint x="949.5" y="120" as="sourcePoint" />
          </mxGeometry>
        </mxCell>
        <mxCell id="pCvQwkfnuYNeorSNLzL4-7" value="" style="endArrow=classic;html=1;rounded=1;hachureGap=4;fontFamily=Architects Daughter;fontSource=https%3A%2F%2Ffonts.googleapis.com%2Fcss%3Ffamily%3DArchitects%2BDaughter;labelBackgroundColor=none;fontColor=default;" parent="1" edge="1">
          <mxGeometry width="50" height="50" relative="1" as="geometry">
            <mxPoint x="195" y="170" as="sourcePoint" />
            <mxPoint x="955" y="170" as="targetPoint" />
          </mxGeometry>
        </mxCell>
        <mxCell id="pCvQwkfnuYNeorSNLzL4-8" value="" style="endArrow=classic;html=1;rounded=1;hachureGap=4;fontFamily=Architects Daughter;fontSource=https%3A%2F%2Ffonts.googleapis.com%2Fcss%3Ffamily%3DArchitects%2BDaughter;dashed=1;labelBackgroundColor=none;fontColor=default;" parent="1" edge="1">
          <mxGeometry width="50" height="50" relative="1" as="geometry">
            <mxPoint x="955" y="210" as="sourcePoint" />
            <mxPoint x="195" y="210" as="targetPoint" />
          </mxGeometry>
        </mxCell>
        <mxCell id="pCvQwkfnuYNeorSNLzL4-9" value="" style="endArrow=classic;html=1;rounded=1;hachureGap=4;fontFamily=Architects Daughter;fontSource=https%3A%2F%2Ffonts.googleapis.com%2Fcss%3Ffamily%3DArchitects%2BDaughter;labelBackgroundColor=none;fontColor=default;" parent="1" edge="1">
          <mxGeometry width="50" height="50" relative="1" as="geometry">
            <mxPoint x="190" y="250" as="sourcePoint" />
            <mxPoint x="950" y="250" as="targetPoint" />
          </mxGeometry>
        </mxCell>
        <mxCell id="pCvQwkfnuYNeorSNLzL4-10" value="" style="endArrow=classic;html=1;rounded=1;hachureGap=4;fontFamily=Architects Daughter;fontSource=https%3A%2F%2Ffonts.googleapis.com%2Fcss%3Ffamily%3DArchitects%2BDaughter;dashed=1;labelBackgroundColor=none;fontColor=default;" parent="1" edge="1">
          <mxGeometry width="50" height="50" relative="1" as="geometry">
            <mxPoint x="950" y="290" as="sourcePoint" />
            <mxPoint x="190" y="290" as="targetPoint" />
          </mxGeometry>
        </mxCell>
        <mxCell id="pCvQwkfnuYNeorSNLzL4-12" value="" style="endArrow=classic;html=1;rounded=1;hachureGap=4;fontFamily=Architects Daughter;fontSource=https%3A%2F%2Ffonts.googleapis.com%2Fcss%3Ffamily%3DArchitects%2BDaughter;labelBackgroundColor=none;fontColor=default;" parent="1" edge="1">
          <mxGeometry width="50" height="50" relative="1" as="geometry">
            <mxPoint x="190" y="330" as="sourcePoint" />
            <mxPoint x="950" y="330" as="targetPoint" />
          </mxGeometry>
        </mxCell>
        <mxCell id="pCvQwkfnuYNeorSNLzL4-13" value="" style="endArrow=classic;html=1;rounded=1;hachureGap=4;fontFamily=Architects Daughter;fontSource=https%3A%2F%2Ffonts.googleapis.com%2Fcss%3Ffamily%3DArchitects%2BDaughter;dashed=1;labelBackgroundColor=none;fontColor=default;" parent="1" edge="1">
          <mxGeometry width="50" height="50" relative="1" as="geometry">
            <mxPoint x="950" y="370" as="sourcePoint" />
            <mxPoint x="190" y="370" as="targetPoint" />
          </mxGeometry>
        </mxCell>
        <mxCell id="pCvQwkfnuYNeorSNLzL4-14" value="&lt;font face=&quot;Verdana&quot; style=&quot;font-size: 15px;&quot;&gt;recherche d&#39;un puzzle&lt;/font&gt;" style="text;html=1;align=center;verticalAlign=middle;resizable=0;points=[];autosize=1;fontFamily=Architects Daughter;fontSource=https%3A%2F%2Ffonts.googleapis.com%2Fcss%3Ffamily%3DArchitects%2BDaughter;labelBackgroundColor=none;rounded=1;" parent="1" vertex="1">
          <mxGeometry x="470" y="140" width="190" height="30" as="geometry" />
        </mxCell>
        <mxCell id="pCvQwkfnuYNeorSNLzL4-15" value="&lt;font face=&quot;Verdana&quot; style=&quot;font-size: 15px;&quot;&gt;affichage des résultats&lt;/font&gt;" style="text;html=1;align=center;verticalAlign=middle;resizable=0;points=[];autosize=1;fontFamily=Architects Daughter;fontSource=https%3A%2F%2Ffonts.googleapis.com%2Fcss%3Ffamily%3DArchitects%2BDaughter;labelBackgroundColor=none;rounded=1;" parent="1" vertex="1">
          <mxGeometry x="470" y="180" width="190" height="30" as="geometry" />
        </mxCell>
        <mxCell id="pCvQwkfnuYNeorSNLzL4-16" value="&lt;font face=&quot;Verdana&quot; style=&quot;font-size: 15px;&quot;&gt;mettre dans le panier&lt;/font&gt;" style="text;html=1;align=center;verticalAlign=middle;resizable=0;points=[];autosize=1;strokeColor=none;fillColor=none;fontFamily=Architects Daughter;fontSource=https%3A%2F%2Ffonts.googleapis.com%2Fcss%3Ffamily%3DArchitects%2BDaughter;labelBackgroundColor=none;rounded=1;" parent="1" vertex="1">
          <mxGeometry x="475" y="220" width="190" height="30" as="geometry" />
        </mxCell>
        <mxCell id="pCvQwkfnuYNeorSNLzL4-17" value="&lt;font face=&quot;Verdana&quot; style=&quot;font-size: 16px; color: rgb(0, 0, 0);&quot;&gt;Item ajouté&amp;nbsp;sur panier client&lt;/font&gt;" style="text;html=1;align=center;verticalAlign=middle;resizable=0;points=[];autosize=1;fontFamily=Architects Daughter;fontSource=https%3A%2F%2Ffonts.googleapis.com%2Fcss%3Ffamily%3DArchitects%2BDaughter;labelBackgroundColor=none;rounded=1;" parent="1" vertex="1">
          <mxGeometry x="435" y="255" width="250" height="30" as="geometry" />
        </mxCell>
        <mxCell id="pCvQwkfnuYNeorSNLzL4-18" value="&lt;font face=&quot;Verdana&quot; style=&quot;font-size: 16px;&quot;&gt;cliquer sur le panier&lt;/font&gt;" style="text;html=1;align=center;verticalAlign=middle;resizable=0;points=[];autosize=1;strokeColor=none;fillColor=none;fontFamily=Architects Daughter;fontSource=https%3A%2F%2Ffonts.googleapis.com%2Fcss%3Ffamily%3DArchitects%2BDaughter;labelBackgroundColor=none;rounded=1;" parent="1" vertex="1">
          <mxGeometry x="490" y="300" width="180" height="30" as="geometry" />
        </mxCell>
        <mxCell id="pCvQwkfnuYNeorSNLzL4-19" value="&lt;font face=&quot;Verdana&quot; style=&quot;font-size: 16px; color: rgb(0, 0, 0);&quot;&gt;affichage du panier&lt;/font&gt;" style="text;html=1;align=center;verticalAlign=middle;resizable=0;points=[];autosize=1;strokeColor=none;fillColor=none;fontFamily=Architects Daughter;fontSource=https%3A%2F%2Ffonts.googleapis.com%2Fcss%3Ffamily%3DArchitects%2BDaughter;labelBackgroundColor=none;rounded=1;" parent="1" vertex="1">
          <mxGeometry x="475" y="340" width="180" height="30" as="geometry" />
        </mxCell>
        <mxCell id="pCvQwkfnuYNeorSNLzL4-20" value="" style="endArrow=classic;html=1;rounded=1;hachureGap=4;fontFamily=Architects Daughter;fontSource=https%3A%2F%2Ffonts.googleapis.com%2Fcss%3Ffamily%3DArchitects%2BDaughter;labelBackgroundColor=none;fontColor=default;" parent="1" edge="1">
          <mxGeometry width="50" height="50" relative="1" as="geometry">
            <mxPoint x="185" y="510" as="sourcePoint" />
            <mxPoint x="945" y="510" as="targetPoint" />
          </mxGeometry>
        </mxCell>
        <mxCell id="pCvQwkfnuYNeorSNLzL4-21" value="" style="endArrow=classic;html=1;rounded=1;hachureGap=4;fontFamily=Architects Daughter;fontSource=https%3A%2F%2Ffonts.googleapis.com%2Fcss%3Ffamily%3DArchitects%2BDaughter;dashed=1;labelBackgroundColor=none;fontColor=default;" parent="1" edge="1">
          <mxGeometry width="50" height="50" relative="1" as="geometry">
            <mxPoint x="950" y="550" as="sourcePoint" />
            <mxPoint x="190" y="550" as="targetPoint" />
          </mxGeometry>
        </mxCell>
        <mxCell id="pCvQwkfnuYNeorSNLzL4-22" value="&lt;font face=&quot;Verdana&quot; style=&quot;font-size: 16px;&quot;&gt;se connecter&amp;nbsp;&lt;/font&gt;" style="text;html=1;align=center;verticalAlign=middle;resizable=0;points=[];autosize=1;strokeColor=none;fillColor=none;fontFamily=Architects Daughter;fontSource=https%3A%2F%2Ffonts.googleapis.com%2Fcss%3Ffamily%3DArchitects%2BDaughter;labelBackgroundColor=none;rounded=1;" parent="1" vertex="1">
          <mxGeometry x="490" y="480" width="130" height="30" as="geometry" />
        </mxCell>
        <mxCell id="pCvQwkfnuYNeorSNLzL4-23" value="&lt;font face=&quot;Verdana&quot; style=&quot;font-size: 16px; color: rgb(0, 0, 0);&quot;&gt;Envoi a la page de connexion&lt;/font&gt;" style="text;html=1;align=center;verticalAlign=middle;resizable=0;points=[];autosize=1;strokeColor=none;fillColor=none;fontFamily=Architects Daughter;fontSource=https%3A%2F%2Ffonts.googleapis.com%2Fcss%3Ffamily%3DArchitects%2BDaughter;labelBackgroundColor=none;rounded=1;" parent="1" vertex="1">
          <mxGeometry x="430" y="510" width="260" height="30" as="geometry" />
        </mxCell>
        <mxCell id="pCvQwkfnuYNeorSNLzL4-24" value="" style="endArrow=classic;html=1;rounded=1;hachureGap=4;fontFamily=Architects Daughter;fontSource=https%3A%2F%2Ffonts.googleapis.com%2Fcss%3Ffamily%3DArchitects%2BDaughter;labelBackgroundColor=none;fontColor=default;" parent="1" edge="1">
          <mxGeometry width="50" height="50" relative="1" as="geometry">
            <mxPoint x="190" y="600" as="sourcePoint" />
            <mxPoint x="950" y="600" as="targetPoint" />
          </mxGeometry>
        </mxCell>
        <mxCell id="pCvQwkfnuYNeorSNLzL4-25" value="" style="endArrow=classic;html=1;rounded=1;hachureGap=4;fontFamily=Architects Daughter;fontSource=https%3A%2F%2Ffonts.googleapis.com%2Fcss%3Ffamily%3DArchitects%2BDaughter;dashed=1;labelBackgroundColor=none;fontColor=default;" parent="1" edge="1">
          <mxGeometry width="50" height="50" relative="1" as="geometry">
            <mxPoint x="945" y="640" as="sourcePoint" />
            <mxPoint x="185" y="640" as="targetPoint" />
          </mxGeometry>
        </mxCell>
        <mxCell id="pCvQwkfnuYNeorSNLzL4-26" value="&lt;font face=&quot;Verdana&quot; style=&quot;font-size: 16px;&quot;&gt;cliquer sur paiement&lt;/font&gt;" style="text;html=1;align=center;verticalAlign=middle;resizable=0;points=[];autosize=1;strokeColor=none;fillColor=none;fontFamily=Architects Daughter;fontSource=https%3A%2F%2Ffonts.googleapis.com%2Fcss%3Ffamily%3DArchitects%2BDaughter;labelBackgroundColor=none;rounded=1;" parent="1" vertex="1">
          <mxGeometry x="460" y="560" width="190" height="30" as="geometry" />
        </mxCell>
        <mxCell id="pCvQwkfnuYNeorSNLzL4-27" value="&lt;font face=&quot;Verdana&quot; style=&quot;font-size: 16px; color: rgb(0, 0, 0);&quot;&gt;demande d&#39;une adresse si inexistante sur le compte&lt;/font&gt;" style="text;html=1;align=center;verticalAlign=middle;resizable=0;points=[];autosize=1;strokeColor=none;fillColor=none;fontFamily=Architects Daughter;fontSource=https%3A%2F%2Ffonts.googleapis.com%2Fcss%3Ffamily%3DArchitects%2BDaughter;labelBackgroundColor=none;rounded=1;" parent="1" vertex="1">
          <mxGeometry x="340" y="600" width="440" height="30" as="geometry" />
        </mxCell>
        <mxCell id="pCvQwkfnuYNeorSNLzL4-28" value="" style="endArrow=classic;html=1;rounded=1;hachureGap=4;fontFamily=Architects Daughter;fontSource=https%3A%2F%2Ffonts.googleapis.com%2Fcss%3Ffamily%3DArchitects%2BDaughter;labelBackgroundColor=none;fontColor=default;" parent="1" edge="1">
          <mxGeometry width="50" height="50" relative="1" as="geometry">
            <mxPoint x="190" y="680" as="sourcePoint" />
            <mxPoint x="950" y="680" as="targetPoint" />
          </mxGeometry>
        </mxCell>
        <mxCell id="pCvQwkfnuYNeorSNLzL4-29" value="&lt;font face=&quot;Verdana&quot; style=&quot;font-size: 16px;&quot;&gt;choix du mode de paiment&lt;/font&gt;" style="text;html=1;align=center;verticalAlign=middle;resizable=0;points=[];autosize=1;strokeColor=none;fillColor=none;fontFamily=Architects Daughter;fontSource=https%3A%2F%2Ffonts.googleapis.com%2Fcss%3Ffamily%3DArchitects%2BDaughter;labelBackgroundColor=none;rounded=1;" parent="1" vertex="1">
          <mxGeometry x="440" y="640" width="240" height="30" as="geometry" />
        </mxCell>
        <mxCell id="pCvQwkfnuYNeorSNLzL4-30" value="" style="endArrow=classic;html=1;rounded=1;hachureGap=4;fontFamily=Architects Daughter;fontSource=https%3A%2F%2Ffonts.googleapis.com%2Fcss%3Ffamily%3DArchitects%2BDaughter;dashed=1;labelBackgroundColor=none;fontColor=default;" parent="1" edge="1">
          <mxGeometry width="50" height="50" relative="1" as="geometry">
            <mxPoint x="945" y="760" as="sourcePoint" />
            <mxPoint x="185" y="760" as="targetPoint" />
          </mxGeometry>
        </mxCell>
        <mxCell id="pCvQwkfnuYNeorSNLzL4-31" value="&lt;font face=&quot;Verdana&quot; style=&quot;font-size: 16px; color: rgb(0, 0, 0);&quot;&gt;renvoi sur la page de paiement choisie&amp;nbsp;&lt;/font&gt;" style="text;html=1;align=center;verticalAlign=middle;resizable=0;points=[];autosize=1;strokeColor=none;fillColor=none;fontFamily=Architects Daughter;fontSource=https%3A%2F%2Ffonts.googleapis.com%2Fcss%3Ffamily%3DArchitects%2BDaughter;labelBackgroundColor=none;rounded=1;" parent="1" vertex="1">
          <mxGeometry x="385" y="690" width="340" height="30" as="geometry" />
        </mxCell>
        <mxCell id="pCvQwkfnuYNeorSNLzL4-33" value="" style="endArrow=classic;html=1;rounded=1;hachureGap=4;fontFamily=Architects Daughter;fontSource=https%3A%2F%2Ffonts.googleapis.com%2Fcss%3Ffamily%3DArchitects%2BDaughter;labelBackgroundColor=none;fontColor=default;" parent="1" edge="1">
          <mxGeometry width="50" height="50" relative="1" as="geometry">
            <mxPoint x="190" y="420" as="sourcePoint" />
            <mxPoint x="950" y="420" as="targetPoint" />
          </mxGeometry>
        </mxCell>
        <mxCell id="pCvQwkfnuYNeorSNLzL4-34" value="&lt;font face=&quot;Verdana&quot; style=&quot;font-size: 16px;&quot;&gt;modifier/supprimer item du panier&lt;/font&gt;" style="text;html=1;align=center;verticalAlign=middle;resizable=0;points=[];autosize=1;strokeColor=none;fillColor=none;fontFamily=Architects Daughter;fontSource=https%3A%2F%2Ffonts.googleapis.com%2Fcss%3Ffamily%3DArchitects%2BDaughter;labelBackgroundColor=none;rounded=1;" parent="1" vertex="1">
          <mxGeometry x="410" y="384" width="300" height="30" as="geometry" />
        </mxCell>
        <mxCell id="pCvQwkfnuYNeorSNLzL4-35" value="" style="endArrow=classic;html=1;rounded=1;hachureGap=4;fontFamily=Architects Daughter;fontSource=https%3A%2F%2Ffonts.googleapis.com%2Fcss%3Ffamily%3DArchitects%2BDaughter;dashed=1;labelBackgroundColor=none;fontColor=default;" parent="1" edge="1">
          <mxGeometry width="50" height="50" relative="1" as="geometry">
            <mxPoint x="945" y="470" as="sourcePoint" />
            <mxPoint x="185" y="470" as="targetPoint" />
          </mxGeometry>
        </mxCell>
        <mxCell id="pCvQwkfnuYNeorSNLzL4-36" value="&lt;font face=&quot;Verdana&quot; style=&quot;font-size: 16px; color: rgb(0, 0, 0);&quot;&gt;effectuer le(s) changement(s)&lt;/font&gt;" style="text;html=1;align=center;verticalAlign=middle;resizable=0;points=[];autosize=1;strokeColor=none;fillColor=none;fontFamily=Architects Daughter;fontSource=https%3A%2F%2Ffonts.googleapis.com%2Fcss%3Ffamily%3DArchitects%2BDaughter;labelBackgroundColor=none;rounded=1;" parent="1" vertex="1">
          <mxGeometry x="420" y="430" width="270" height="30" as="geometry" />
        </mxCell>
      </root>
    </mxGraphModel>
  </diagram>
</mxfile>
